<?xml version="1.0" standalone="no"?><!DOCTYPE svg PUBLIC "-//W3C//DTD SVG 1.1//EN" "http://www.w3.org/Graphics/SVG/1.1/DTD/svg11.dtd"><svg t="1677068679449" class="icon" viewBox="0 0 1024 1024" version="1.1" xmlns="http://www.w3.org/2000/svg" p-id="12235" xmlns:xlink="http://www.w3.org/1999/xlink" width="200" height="200"><path d="M512 512.002m-511.998 0a511.998 511.998 0 1 0 1023.996 0 511.998 511.998 0 1 0-1023.996 0Z" fill="#1669AD" p-id="12236"></path><path d="M512.002 512.002m-407.00441 0a407.00441 407.00441 0 1 0 814.00882 0 407.00441 407.00441 0 1 0-814.00882 0Z" fill="#2A81C2" p-id="12237" data-spm-anchor-id="a313x.7781069.0.i0" class="selected"></path><path d="M683.50333 570.061773l43.999828-174.949316-12.433951-97.615619-62.937754-89.331651-135.67947-78.423694-124.045516 25.795899-13.795946 24.765904h-20.635919l-52.031797 39.239846-34.769864 87.743658-11.155957 84.793668 20.819919 143.675439 115.953547 144.233437-112.315561 53.115792v97.067621c0 1.095996 0.046 2.185991 0.117999 3.273987 0.016 0.301999 0.042 0.605998 0.066 0.905997 0.07 0.869997 0.159999 1.733993 0.273999 2.59799 0.032 0.237999 0.054 0.477998 0.09 0.715997 0.155999 1.075996 0.343999 2.145992 0.565997 3.211987 0.042 0.207999 0.094 0.411998 0.14 0.619998 0.195999 0.887997 0.413998 1.773993 0.655997 2.65399a58.511771 58.511771 0 0 0 2.475991 7.175971c0.09 0.215999 0.187999 0.431998 0.281999 0.647998 0.397998 0.915996 0.815997 1.827993 1.265995 2.735989 0.074 0.149999 0.139999 0.297999 0.213999 0.449999 0.541998 1.075996 1.113996 2.141992 1.717993 3.205987l0.098 0.161999a70.867723 70.867723 0 0 0 2.103991 3.425987 79.533689 79.533689 0 0 0 4.511983 6.219976l0.195999 0.239999c0.803997 0.999996 1.639994 1.991992 2.50799 2.975988 0.028 0.028 0.05 0.058 0.074 0.086a100.829606 100.829606 0 0 0 5.877977 6.093976l0.143999 0.135999c33.933867 32.271874 101.315604 54.263788 178.917302 54.263788 111.725564 0 202.29521-45.577822 202.295209-101.801602v-97.067621l-99.71761-47.157815 94.153632-115.883548z" fill="#1669AD" p-id="12238"></path><path d="M427.316331 654.163445l-121.249527-150.827411-20.819918-143.675439 11.151956-84.793669 34.769864-87.743657 52.035797-39.241847h20.635919l13.795947-24.763903 124.047515-25.797899 135.67547 78.423694 62.939754 89.331651 12.433952 97.615618-43.999828 174.947317-94.667631 116.525545z" fill="#BE3D27" p-id="12239"></path><path d="M740.299108 265.074965l-62.939754-89.331651-135.67547-78.423694-14.855942 3.089988 130.335491 75.333706 62.937754 89.331651 12.433952 97.615618-43.999829 174.947317-94.66763 116.525545h20.197921l94.667631-116.525545 43.999828-174.947317z" fill="#E65439" p-id="12240"></path><path d="M564.397795 629.79554h-104.79559l-149.897415 70.887723v97.067621c0 56.22378 90.569646 101.801602 202.29521 101.801602s202.29921-45.577822 202.29921-101.801602v-97.067621l-149.901415-70.887723z" fill="#EDC849" p-id="12241"></path><path d="M339.778673 851.176675v-150.491412l148.851418-70.887723h-29.027886l-149.897415 70.887723v97.067621c0 19.595923 11.009957 37.893852 30.073883 53.423791z" fill="#DDAE2A" p-id="12242"></path><path d="M564.397795 637.871508L512 757.239042l-52.397795-119.601533v-149.331416h104.79559z" fill="#DE8729" p-id="12243"></path><path d="M547.471861 488.306093v188.123265l16.925934-38.55785v-149.565415z" fill="#F79D22" p-id="12244"></path><path d="M677.359354 295.328846h-0.479998c0.285999-3.965985 0.479998-7.957969 0.479998-11.999953 0-91.325643-74.031711-165.359354-165.359354-165.359354-91.323643 0-165.359354 74.033711-165.359354 165.359354 0 4.041984 0.195999 8.033969 0.479998 11.999953h-0.479998l0.945996 5.629978c0.695997 6.537974 1.799993 12.947949 3.233988 19.233925l31.983875 190.445256 92.421639 96.769622H548.777856l92.417639-96.769622 31.987875-190.445256a163.78736 163.78736 0 0 0 3.229988-19.233925l0.945996-5.629978z" fill="#F79D22" p-id="12245"></path><path d="M404.832419 322.272741l22.483912-48.165812 0.215999-48.363811-34.405866 37.077855 5.435979 64.451749z" fill="#DE8729" p-id="12246"></path><path d="M609.651619 252.371014l-128.745498-48.48581-53.375791 21.859914 14.499943 50.763802 87.367659 66.987738 133.863477 35.77386 9.921961-59.073769a173.119324 173.119324 0 0 0 2.281991-12.043953l-65.813742-55.781782zM406.91441 295.328846H346.640646l36.163859 215.309159 92.421639 96.769622h13.401947l-58.72977-96.769622z" fill="#DE8729" p-id="12247"></path><path d="M598.893661 377.558525m-1.639994 0a1.639994 1.639994 0 1 0 3.279987 0 1.639994 1.639994 0 1 0-3.279987 0Z" fill="#DE8729" p-id="12248"></path><path d="M590.201695 386.724489m-59.451768 0a59.451768 59.451768 0 1 0 118.903535 0 59.451768 59.451768 0 1 0-118.903535 0Z" fill="#2A81C2" p-id="12249"></path><path d="M590.199695 322.272741c-35.539861 0-64.449748 28.913887-64.449749 64.453748S554.659833 451.178238 590.199695 451.178238s64.453748-28.913887 64.453748-64.453749-28.915887-64.451748-64.453748-64.451748z m0 118.905536c-30.023883 0-54.449787-24.427905-54.449788-54.453788s24.425905-54.453787 54.449788-54.453787c30.027883 0 54.453787 24.427905 54.453787 54.453787S620.225577 441.178277 590.199695 441.178277z" fill="#494A4A" p-id="12250"></path><path d="M590.199695 386.724489m-10.37796 0a10.377959 10.377959 0 1 0 20.755919 0 10.377959 10.377959 0 1 0-20.755919 0Z" fill="#1669AD" p-id="12251"></path><path d="M362.594584 372.558545h16.355936v9.999961h-16.355936zM649.651462 372.558545h16.351936v9.999961h-16.351936z" fill="#494A4A" p-id="12252"></path><path d="M427.53233 311.118785l71.057722 11.017957v-9.977961l-71.057722-11.019957z" fill="#DE8729" p-id="12253"></path><path d="M541.703884 467.052176l-9.999961-12.159953h-22.499912v-110.591568l-10.575959-32.141874h-0.038l-70.989722-11.007957-0.006-0.012-0.02 0.008-0.042-0.008v0.024l-67.769735 23.841906 4.713981 8.791966 64.03575-22.525912 63.009754 9.769962 7.68197 23.593908v122.417522z" fill="#DE8729" p-id="12254"></path><path d="M520.453967 496.138062h-67.235737l9.843961 16.499936 57.391776 24.999902 57.389776-24.999902 9.843961-16.499936z" fill="#BE3D27" p-id="12255"></path><path d="M453.21823 496.138062l8.585966 14.395944h117.293542l8.589966-14.395944h-67.233737z" fill="#E8E9EC" p-id="12256"></path><path d="M427.53233 225.743118l20.54192 46.665818 82.675677 57.999773 148.289421 59.197769 19.357924-77.967695-12.331952-86.897661-61.35176-67.753735-83.009676-47.911813-93.629634 13.333948z" fill="#BE3D27" p-id="12257"></path><path d="M528.097937 383.438502c-15.163941-9.481963-28.389889-0.263999-28.519888-0.169999l-5.815978-8.135968c0.761997-0.541998 18.859926-13.165949 39.635845-0.17l-5.299979 8.475967z" fill="#494A4A" p-id="12258"></path><path d="M437.69829 386.724489m-59.451768 0a59.451768 59.451768 0 1 0 118.903536 0 59.451768 59.451768 0 1 0-118.903536 0Z" fill="#2A81C2" p-id="12259"></path><path d="M437.69629 322.272741c-35.539861 0-64.449748 28.913887-64.449748 64.453748s28.909887 64.453748 64.449748 64.453749 64.453748-28.913887 64.453748-64.453749-28.915887-64.453748-64.453748-64.453748z m0 118.905536c-30.023883 0-54.449787-24.427905-54.449787-54.453788s24.425905-54.453787 54.449787-54.453787c30.027883 0 54.453787 24.427905 54.453788 54.453787s-24.427905 54.453787-54.453788 54.453788z" fill="#494A4A" p-id="12260"></path><path d="M437.69629 386.724489m-10.377959 0a10.377959 10.377959 0 1 0 20.755919 0 10.377959 10.377959 0 1 0-20.755919 0Z" fill="#1669AD" p-id="12261"></path><path d="M427.53233 225.743118l-9.895961 46.665818-21.599916 65.185745-46.797817 82.393678-8.503967-130.245491 14.667943-86.667661 34.663864-49.331808h15.999938l26.241897-23.999906 45.093824 6.665974z" fill="#BE3D27" p-id="12262"></path><path d="M427.53233 225.743118l-22.133914 43.49783-18.499927 64.555748-40.257843 63.307753 27.281893 60.635763-10.527959-62.675755 32.641873-57.469776 21.599916-65.185745z" fill="#E65439" p-id="12263"></path></svg>