<?xml version="1.0" ?><!DOCTYPE svg  PUBLIC '-//W3C//DTD SVG 1.1//EN'  'http://www.w3.org/Graphics/SVG/1.1/DTD/svg11.dtd'><svg enable-background="new 0 0 126 126" id="Layer_1" version="1.1" viewBox="0 0 126 126" xml:space="preserve" xmlns="http://www.w3.org/2000/svg" xmlns:xlink="http://www.w3.org/1999/xlink"><g><g><path d="M105.783,84.8623c-1.4882-0.2166-15.6165,4.4122-17.114,10.7417    c-1.4976,6.3382-12.8003,12.9354-17.6132,11.306c-4.8129-1.6294-11.1234,0.1131-11.1234,0.1131l-3.9746,1.9214l-0.9042,0.4332    h-0.0094L1,78.1741l67.4382-39.199l52.3299,30.2149c1.6483,0.9511,3.0233,2.3638,3.7392,4.1252    C128.4819,83.0352,107.1487,85.0509,105.783,84.8623z" fill="#F3F6FD"/><g><path d="M46.8149,104.3374c0,0-0.78-2.4299-1.85-4v-0.0498l-0.18-0.1902c-0.19-0.27-0.4-0.5-0.61-0.6799     c-0.01-0.01-0.03-0.02-0.04-0.02l-0.79-0.8599l5.71,3.6099l2.56,2.77l0.75,0.48l0.04-0.3999l-2.75-2.98l2.8519-25.1672     l-0.6919-0.073l-0.6832-0.2085l-0.2968,2.4487l-6.21-3.9302l0.5504-2.8962l-0.8303-0.1438l-0.6462,0.2302l-1.7938,15.0999     c-0.43,0.2-1.18,0.6301-1.43,1.3101c-0.11,0.3201-0.26,0.6001-0.49,0.8c-0.28,0.24-0.7,0.5-1.21,0.55     c-0.99,0.1099-0.72,1.1299-0.66,1.4199c-0.01,0-0.01,0-0.02,0c-0.05,0.1199-0.08,0.22-0.09,0.28c0,0.02,0.02,0.0598,0.05,0.0898     c-0.21,0.3301-1.03,1.54-2.03,2.3201c-0.96,0.75,0.47,2.24,1.03,2.77c0.11,0.1001,0.18,0.22,0.2,0.3101c0,0,0,0.01,0,0.02     c-0.04-0.01-0.1-0.04-0.14-0.04c-0.11,0-0.4,0.52-0.46,0.6199c-0.1517,0.2559-0.0465,0.6309,0.1921,1.0439l3.3224,1.9182     c0.149-0.4043,0.1121-0.9653-0.6445-1.592c0,0-0.01-0.05,0-0.1101c0.03-0.1399,0.15-0.2,0.33-0.1599     c0.37,0.0601,0.73,0.1499,1.13,0.3101c0.35,0.1499,0.6,0.21,0.8,0.23c0.94,0.3699,2.49,1.1699,2.49,1.1699     c-0.11,0.21,1.53,2.72,1.67,3.2c-0.02,0.03-0.05,0.05-0.1,0.0601c-0.1065,0.0151-0.1462,0.052-0.1678,0.072l1.1521,0.6653     c-0.0167-0.0891-0.0456-0.22-0.0843-0.2974C46.7749,104.3374,46.8149,104.3474,46.8149,104.3374z M48.7349,97.7774l-3-1.9099     c0.05-0.1399,0.07-0.3,0.15-0.4299c0.21-0.3799,0.62-1.1201,0.81-1.3501c0.58,0.3601,1.29,1.0601,1.61,1.3801     c0.36,0.3799,0.75,0.52,0.1899-0.3c-0.02-0.02-0.05-0.05-0.06-0.0801l0.56,0.3601L48.7349,97.7774z M44.5349,75.8775l6.21,3.9399     l-0.2599,2.3301l-6.21-3.9299L44.5349,75.8775z M44.1949,79.0076l6.2,3.9399l-0.26,2.3201l-6.2-3.9302L44.1949,79.0076z      M43.8449,82.1375l6.2,3.9299l-0.26,2.3301l-6.2-3.9299L43.8449,82.1375z M43.4949,85.2676l6.2,3.9299l-0.26,2.3298l-6.2-3.9299     L43.4949,85.2676z M43.1049,88.7075c0.04-0.05,0.07-0.0801,0.09-0.1101c0.59,0.5,1.2,1.26,1.47,1.6101     c0.31,0.3999,0.75,0.6799,0.39-0.0801c-0.13-0.26-0.36-0.5898-0.6201-0.9199l4.91,3.1199l-0.26,2.3201l-2.6-1.6499     c-0.02-0.03-0.04-0.0601-0.07-0.0901l-0.75-0.6599c-0.07-0.0701-0.11-0.0601-0.12-0.01s-0.02,0.0999-0.02,0.1599l-2.64-1.6699     L43.1049,88.7075z M42.7949,91.5176l2.47,1.5698c-0.18,0.2002-0.41,0.5-0.61,0.8801c-0.32,0.6499-0.56,0.23-2.03-0.9099     L42.7949,91.5176z M42.8849,95.6175c0.01,0.01,0.03,0.02,0.04,0.02c0.02-0.04,0.05-0.0999,0.08-0.1899v-0.01     c0.36,0.1399,0.96,0.3701,1.51,0.52l4.14,2.6199l-0.26,2.3301l-5.89-3.73C42.6649,96.4375,42.8549,95.7176,42.8849,95.6175z" fill="#E1E9F4"/></g><path d="M85.2379,85.9973l-0.76,0.3c-0.13,0.05-0.28,0.05-0.41-0.02l-12.02-5.8499l-9.66,5.6099    c-0.61,0.3501-1.59,0.3501-2.2,0l-29.3-16.9099c-0.31-0.1802-0.46-0.4102-0.46-0.6401l0.01-1.3201c0,0.23,0.15,0.4702,0.46,0.6401    l29.29,16.9099c0.62,0.3601,1.6,0.3601,2.21,0l8.42-4.8899l-2.6-1.26l13.02-6.8201l4.31,13.6201    C85.6279,85.6275,85.4879,85.8972,85.2379,85.9973z" fill="#E1E9F4"/><g><path d="M94.8605,82.2705l-0.8318-1.125c-0.7771-1.0852-2.0391-2.0413-3.9984-2.718     c-10.043-0.5378-12.1672,9.1602-12.2777,9.668l0.8799,1.1948c0.4847,0.0398,0.9428,0.1094,1.3622,0.189     c2.7817,0.5278,4.2664,1.7625,4.9673,2.5391l0.5116,0.697c0.1416-0.0703,2.4048-1.2673,5.7545-1.0127     c1.2072-1.1228,2.7169-2.1414,4.3048-3.0315C96.1154,86.7005,96.3207,84.2583,94.8605,82.2705z" fill="#E1E9F4"/></g><polygon fill="#FAFCFF" points="120.4058,68.9809 82.023,90.9912 72.838,85.6882 111.2213,63.6779 110.6699,63.3597     72.2867,85.3699 43.6391,68.8304 82.0235,46.8192 81.4722,46.5009 43.0877,68.5121 33.9078,63.2119 72.2926,41.2007     71.7412,40.8824 4.0423,79.9305 4.5936,80.2492 33.4735,63.4643 42.6534,68.7641 13.7734,85.549 14.3247,85.8677 43.2048,69.0824     52.4692,74.4314 23.5889,91.2162 23.9813,91.443 52.8616,74.6581 62.2055,80.0527 33.3249,96.838 33.7125,97.0615     62.5929,80.2762 71.8524,85.6224 42.9717,102.4077 43.523,102.726 72.4038,85.9407 81.5887,91.2437 52.7077,108.029     53.2591,108.3472 120.9572,69.2992   "/></g><g><g><g><g><g><g><path d="M80.516,49.2152L51.2227,32.3008c-0.3092-0.1783-0.5904-0.1922-0.7871-0.0751l-0.8473,0.4866         c0.2015-0.1126,0.7825,1.3447,0.7825,1.3447s30.221,38.0643,30.0242,38.1767l0.8426-0.4909         c0.1968-0.1125,0.3233-0.361,0.3233-0.7076l0.0562-19.9132C81.6171,50.4241,81.1251,49.5667,80.516,49.2152z" fill="#83A1CC"/><g><g enable-background="new    "><g><path d="M79.6693,49.704c0.6102,0.3523,1.1052,1.2097,1.1032,1.9109l-0.0564,19.9097            c-0.002,0.7048-0.5002,0.9852-1.1104,0.6329L50.313,55.2453c-0.6132-0.3541-1.1052-1.2062-1.1032-1.9109l0.0564-19.9097            c0.002-0.7012,0.4972-0.9869,1.1104-0.6329L79.6693,49.704z" fill="#B6CBEA"/></g></g></g><g><polygon fill="#3A3A77" points="79.6686,50.9742 79.6686,53.861 50.37,36.9454 50.37,34.0586         "/></g><g><g><path d="M78.3184,52.3143c-0.3089-0.1783-0.5583-0.6103-0.5573-0.9652           c0.001-0.3549,0.2521-0.4988,0.5609-0.3205c0.3096,0.1787,0.559,0.6116,0.558,0.9665           C78.879,52.3499,78.6279,52.493,78.3184,52.3143z" fill="#6262AA"/></g><g><path d="M76.5189,51.2753c-0.3089-0.1783-0.5583-0.6103-0.5573-0.9652           c0.001-0.3549,0.2521-0.4988,0.5609-0.3205c0.3096,0.1787,0.559,0.6116,0.558,0.9665           C77.0795,51.311,76.8285,51.4541,76.5189,51.2753z" fill="#6262AA"/></g><g><path d="M74.7194,50.2364c-0.3089-0.1783-0.5583-0.6103-0.5573-0.9652           c0.001-0.3549,0.2521-0.4988,0.5609-0.3205c0.3096,0.1787,0.559,0.6116,0.558,0.9665           C75.2801,50.2721,75.029,50.4152,74.7194,50.2364z" fill="#6262AA"/></g></g><g><polygon fill="#2A2A5E" points="79.6686,53.861 79.6122,70.8908 50.3136,53.9752 50.37,36.9454         "/></g></g><g><g><g enable-background="new    "><g><path d="M80.0648,72.7994l-0.0047,1.3207c0,0.2297-0.1499,0.4546-0.4545,0.6326L62.3914,84.7561            c-0.6091,0.3514-1.5977,0.3514-2.2068,0L30.8912,67.8465c-0.3093-0.1782-0.4592-0.4125-0.4592-0.6468l0.0047-1.3159            c0-0.2297,0.1546-0.464,0.4545-0.6374l17.219-10.0034c0.6044-0.356,1.5931-0.3514,2.2021,0l29.2933,16.9145            C79.9102,72.3354,80.0648,72.5651,80.0648,72.7994z" fill="#83A1CC"/></g></g></g><g><g><g enable-background="new    "><g><path d="M80.0648,72.7994l-0.0047,1.3188c0,0.2297-0.1499,0.4544-0.4545,0.6326L62.3914,84.7542             c-0.6091,0.3514-1.5977,0.3514-2.2068,0L30.8912,67.8444c-0.3093-0.178-0.4592-0.4123-0.4592-0.6465l0.0047-1.314             c0,0.2295,0.1546,0.4637,0.4639,0.6417l29.2886,16.9099c0.6138,0.356,1.6024,0.356,2.2068,0L79.615,73.432             C79.9149,73.2586,80.0648,73.0291,80.0648,72.7994z" fill="#83A1CC"/></g><g><polygon fill="#3A3A77" points="76.9768,75.3927 76.9768,75.9311 78.4087,75.099 78.4087,74.5609            "/></g><g><polygon fill="#3A3A77" points="67.2379,80.9669 67.2379,81.6757 69.5232,80.3477 69.5232,79.6392            "/></g><g><polygon fill="#3A3A77" points="63.4412,83.1732 63.4412,83.882 65.7265,82.554 65.7265,81.8455            "/></g><g><path d="M79.6048,72.1553c0.6103,0.3523,0.6165,0.924,0.0103,1.2763L62.3979,83.4372             c-0.6063,0.3523-1.5963,0.3524-2.2066,0L30.8987,66.5251c-0.6103-0.3523-0.6135-0.9258-0.0072-1.2781l17.2171-10.0055             c0.6063-0.3523,1.5932-0.3506,2.2035,0.0018L79.6048,72.1553z" fill="#DEE7F8"/></g></g></g><path d="M58.3678,73.1799l-10.2252-5.9035c-0.2138-0.1232-0.5593-0.1252-0.7716-0.002l-5.3179,3.0904          c-0.2124,0.1234-0.2078,0.3237,0.0059,0.4471l10.2252,5.9035c0.2136,0.1234,0.5558,0.1234,0.7683,0l5.3179-3.0904          C58.5825,73.5016,58.5814,73.3033,58.3678,73.1799z" fill="#B6CBEA"/></g></g></g></g><g><path d="M70.1186,57.5246l0.7646,0.889l-0.2067,0.8651l-0.8583-0.4922       c-0.1714,0.3165-0.4057,0.5476-0.6853,0.6902l0.2614,1.0915l-0.7483,0.0982l-0.6099-1.0479       c-0.3369-0.0544-0.6991-0.188-1.0689-0.4014c-0.0268-0.0155-0.0537-0.0314-0.0806-0.0477l-0.3928,0.653l-0.8533-0.7257       l-0.0031-0.9914c-0.3589-0.4015-0.6751-0.8542-0.9383-1.327l-0.8196-0.1692l-0.4568-1.1233l0.6065-0.3523       c-0.1309-0.4927-0.1956-0.9776-0.1826-1.4294l-0.7632-0.8881l0.2053-0.866l0.8583,0.4922       c0.1714-0.3165,0.4057-0.5476,0.6868-0.6893l-0.2614-1.0916l0.7483-0.0982l0.6084,1.047       c0.3383,0.0552,0.6993,0.1881,1.0677,0.4008c0.0267,0.0154,0.0535,0.0313,0.0803,0.0476l0.3942-0.6522l0.8547,0.7282       l0.0001,0.988c0.3604,0.4023,0.678,0.8558,0.9412,1.3287l0.8181,0.1683l0.4568,1.1233l-0.605,0.3549       C70.0668,56.5879,70.1301,57.072,70.1186,57.5246z M68.729,57.1011c0.1128-0.4732,0.0369-1.0716-0.214-1.6867       c-0.2494-0.6143-0.6444-1.1715-1.1104-1.5686c-0.1393-0.1186-0.2801-0.2188-0.4198-0.2994       c-0.3291-0.19-0.6526-0.2721-0.939-0.2337c-0.4094,0.0523-0.6967,0.3421-0.8095,0.8153       c-0.1128,0.4732-0.0369,1.0732,0.2125,1.6859c0.2508,0.615,0.6458,1.1723,1.1132,1.5702       c0.1394,0.1178,0.2788,0.2177,0.4183,0.2982c0.3283,0.1895,0.6526,0.273,0.9392,0.2341       C68.3289,57.864,68.6176,57.5751,68.729,57.1011" fill="#4C4A8B"/></g><g><path d="M74.6836,67.6712l0.6715-0.9427c0.2711,0.2711,0.5657,0.5042,0.8703,0.68       c0.3065,0.177,0.6015,0.2844,0.8732,0.3267l0.664,1.7135c-0.4534-0.0356-0.9503-0.1947-1.4736-0.4862l3.337,1.9266       l0.0066-2.3417c-0.2722,0.4222-0.6485,0.7101-1.1052,0.8352l-0.664-1.7136c0.4503-0.1737,0.7703-0.6002,0.8777-1.2303       l0.896,0.5173l0.0029-1.014l-0.8961-0.5174c-0.1035-0.7541-0.42-1.5458-0.8678-2.238l0.6715-0.9448       c0.4546,0.6524,0.828,1.3732,1.0969,2.1077l0.0089-3.1342l-0.7061,0.0863c-0.5046-0.6755-1.0759-1.2818-1.6885-1.7815       l-0.314-1.6915l-1.3803-0.7969l-0.3225,1.3239c-0.6135-0.2081-1.1863-0.2625-1.6931-0.1707l-1.1516-1.4739l-0.9774,0.557       l0.6972,1.7306c-0.3336,0.3916-0.5756,0.9081-0.7064,1.5381l-1.3131-0.3895l-0.0045,1.5838l1.311,1.1231       c0.1268,0.7789,0.3651,1.575,0.6954,2.3476l-0.7047,0.9212l0.012,0.0208l4.7466,2.7405       C75.6317,68.5726,75.1357,68.1583,74.6836,67.6712z M76.2287,66.2375c-0.8435-0.487-1.5246-1.6667-1.5218-2.6359       c0.0027-0.9693,0.6883-1.3621,1.5318-0.8752c0.8454,0.4881,1.5265,1.6701,1.5238,2.6393       C77.7596,66.3349,77.0741,66.7256,76.2287,66.2375z M76.2462,60.0388c0.5486,0.3167,1.0676,0.7467,1.5394,1.255l-0.6715,0.9448       c-0.271-0.271-0.5657-0.5041-0.8722-0.681c-0.3046-0.1759-0.5996-0.2833-0.8713-0.3255l-0.664-1.7159       C75.1799,59.5534,75.6995,59.7232,76.2462,60.0388z M73.9216,66.7234c-0.8356-1.197-1.4104-2.6277-1.5298-3.9505l1.3335,0.7699       c0.1034,0.7518,0.42,1.5458,0.8678,2.238L73.9216,66.7234z M73.7282,62.5288l-1.3335-0.7699       c0.1265-1.1831,0.7076-1.9442,1.5472-2.1763l0.664,1.7159C74.1555,61.4721,73.8356,61.8963,73.7282,62.5288z" fill="#4C4A8B"/></g></g><g><g><g><polygon fill="#83A1CC" points="75.2711,71.1515 74.5946,71.5447 73.4596,70.8894 74.1362,70.4962       "/></g><g><polygon fill="#83A1CC" points="73.9058,70.3632 73.2292,70.7564 72.0943,70.1011 72.7709,69.7079       "/></g><g><polygon fill="#83A1CC" points="68.3767,73.5763 67.1687,74.2784 66.0337,73.6231 67.2418,72.9211       "/></g><g><polygon fill="#83A1CC" points="59.1921,63.0026 57.9841,63.7046 56.702,62.9644 57.91,62.2624       "/></g><g><polygon fill="#83A1CC" points="55.0608,65.8884 53.8528,66.5904 52.5696,65.8496 53.7776,65.1475       "/></g><g><polygon fill="#83A1CC" points="56.7076,68.5957 55.4995,69.2978 54.2174,68.5575 55.4255,67.8555       "/></g><g><polygon fill="#83A1CC" points="55.1266,67.683 53.9186,68.385 52.6354,67.6441 53.8434,66.9421       "/></g><g><polygon fill="#83A1CC" points="56.6429,66.8018 55.4348,67.5039 54.1516,66.763 55.3597,66.0609       "/></g><g><polygon fill="#83A1CC" points="54.1909,63.6296 52.984,64.3309 51.7019,63.5907 52.9088,62.8893       "/></g><g><polygon fill="#83A1CC" points="53.5446,66.7696 52.3365,67.4716 51.0533,66.7307 52.2614,66.0287       "/></g><g><polygon fill="#83A1CC" points="48.7983,64.0293 47.5903,64.7314 46.3082,63.9911 47.5163,63.2891       "/></g><g><polygon fill="#83A1CC" points="50.3804,64.9427 49.1724,65.6448 47.8903,64.9046 49.0983,64.2025       "/></g><g><polygon fill="#83A1CC" points="51.9625,65.8561 50.7544,66.5582 49.4724,65.818 50.6804,65.1159       "/></g><g><polygon fill="#83A1CC" points="53.4788,64.975 52.2707,65.677 50.9886,64.9368 52.1967,64.2348       "/></g><g><polygon fill="#83A1CC" points="64.3237,73.8016 63.8137,74.098 62.4734,73.3242 62.9834,73.0278       "/></g><g><polygon fill="#83A1CC" points="62.761,72.8994 62.251,73.1957 60.9108,72.4219 61.4207,72.1256       "/></g><g><polygon fill="#83A1CC" points="63.4591,72.4937 62.9491,72.7901 61.6088,72.0163 62.1188,71.7199       "/></g><g><polygon fill="#83A1CC" points="58.2897,69.5091 57.0816,70.2112 55.7995,69.471 57.0076,68.7689       "/></g><g enable-background="new    "><g><polygon fill="#83A1CC" points="58.5892,61.5202 57.9127,61.9133 56.6306,61.1731 57.3071,60.7799        "/></g><g><polygon fill="#83A1CC" points="57.61,62.0892 56.4021,62.7912 55.12,62.051 56.3279,61.349        "/></g><g><polygon fill="#83A1CC" points="60.1713,62.4336 59.4947,62.8267 58.2126,62.0865 58.8892,61.6934        "/></g><g><polygon fill="#83A1CC" points="61.7533,63.347 61.0768,63.7402 59.7947,62.9999 60.4713,62.6068        "/></g><g><polygon fill="#83A1CC" points="56.9048,63.4386 55.6968,64.1406 54.4147,63.4004 55.6227,62.6984        "/></g><g><polygon fill="#83A1CC" points="60.7742,63.916 59.5662,64.618 58.2841,63.8778 59.4921,63.1758        "/></g><g><polygon fill="#83A1CC" points="63.3354,64.2604 62.6589,64.6536 61.3768,63.9134 62.0533,63.5202        "/></g><g><polygon fill="#83A1CC" points="58.4869,64.352 57.2789,65.054 55.9968,64.3138 57.2048,63.6118        "/></g><g><polygon fill="#83A1CC" points="55.7729,64.543 54.5661,65.2443 53.284,64.5041 54.4909,63.8027        "/></g><g><polygon fill="#83A1CC" points="62.3563,64.8294 61.1483,65.5314 59.8662,64.7912 61.0742,64.0892        "/></g><g><polygon fill="#83A1CC" points="64.9175,65.1738 64.241,65.567 62.9577,64.8261 63.6343,64.4329        "/></g><g><polygon fill="#83A1CC" points="60.0689,65.2654 58.8609,65.9674 57.5789,65.2272 58.7868,64.5252        "/></g><g><polygon fill="#83A1CC" points="57.355,65.4564 56.1481,66.1577 54.866,65.4175 56.0729,64.7162        "/></g><g><polygon fill="#83A1CC" points="63.9383,65.7428 62.7304,66.4448 61.4471,65.704 62.6551,65.002        "/></g><g><polygon fill="#83A1CC" points="61.651,66.1788 60.443,66.8808 59.1598,66.14 60.3678,65.4379        "/></g><g><polygon fill="#83A1CC" points="65.5204,66.6562 64.3124,67.3583 63.0292,66.6174 64.2372,65.9154        "/></g><g><polygon fill="#83A1CC" points="63.2331,67.0922 62.0251,67.7942 60.7419,67.0534 61.9498,66.3513        "/></g><g><polygon fill="#83A1CC" points="60.5192,67.2832 59.3123,67.9846 58.0291,67.2437 59.236,66.5423        "/></g><g><polygon fill="#83A1CC" points="67.1013,67.569 65.8934,68.271 64.6113,67.5308 65.8193,66.8288        "/></g><g><polygon fill="#83A1CC" points="64.814,68.005 63.606,68.707 62.3239,67.9668 63.5319,67.2648        "/></g><g><polygon fill="#83A1CC" points="62.1012,68.1966 60.8944,68.898 59.6111,68.1571 60.818,67.4557        "/></g><g><polygon fill="#83A1CC" points="59.8059,68.628 58.5979,69.33 57.3158,68.5898 58.5238,67.8878        "/></g><g><polygon fill="#83A1CC" points="66.3961,68.9184 65.1881,69.6204 63.906,68.8802 65.114,68.1782        "/></g><g><polygon fill="#83A1CC" points="63.6822,69.1094 62.4753,69.8107 61.1932,69.0705 62.4001,68.3691        "/></g><g><polygon fill="#83A1CC" points="61.388,69.5414 60.1799,70.2434 58.8979,69.5032 60.1059,68.8012        "/></g><g><polygon fill="#83A1CC" points="71.0765,69.8641 69.8685,70.5661 67.7754,69.3576 68.9834,68.6556        "/></g><g><polygon fill="#83A1CC" points="65.2643,70.0228 64.0574,70.7241 62.7753,69.9839 63.9822,69.2826        "/></g><g><polygon fill="#83A1CC" points="62.9701,70.4548 61.762,71.1568 60.4788,70.416 61.6869,69.7139        "/></g><g><polygon fill="#83A1CC" points="69.5602,70.7452 68.3522,71.4472 67.0702,70.707 68.2782,70.005        "/></g><g><polygon fill="#83A1CC" points="72.9266,70.9322 71.7186,71.6342 70.5837,70.979 71.7917,70.277        "/></g><g><polygon fill="#83A1CC" points="76.6376,71.9404 75.9611,72.3336 74.8261,71.6783 75.5027,71.2852        "/></g><g><polygon fill="#83A1CC" points="68.0429,71.627 66.836,72.3284 64.3574,70.8973 65.5643,70.196        "/></g><g><polygon fill="#83A1CC" points="74.292,71.7205 73.084,72.4225 71.949,71.7673 73.157,71.0652        "/></g><g><polygon fill="#83A1CC" points="71.4104,71.8134 70.2024,72.5154 69.0674,71.8601 70.2754,71.1581        "/></g><g><polygon fill="#83A1CC" points="78.0041,72.7294 77.3276,73.1225 76.1926,72.4673 76.8692,72.0741        "/></g><g><polygon fill="#83A1CC" points="75.6585,72.5095 74.4505,73.2115 73.3155,72.5562 74.5235,71.8542        "/></g><g><polygon fill="#83A1CC" points="66.5266,72.5082 65.3185,73.2102 62.0609,71.3294 63.2689,70.6273        "/></g><g><polygon fill="#83A1CC" points="72.7757,72.6017 71.5677,73.3037 70.4328,72.6484 71.6408,71.9464        "/></g><g><polygon fill="#83A1CC" points="69.893,72.6952 68.6861,73.3965 67.5512,72.7413 68.7581,72.0399        "/></g><g><polygon fill="#83A1CC" points="77.025,73.2984 75.817,74.0004 74.682,73.3452 75.89,72.6431        "/></g><g><polygon fill="#83A1CC" points="74.1422,73.3906 72.9342,74.0926 71.7993,73.4374 73.0073,72.7354        "/></g><g><polygon fill="#83A1CC" points="71.2584,73.4835 70.0515,74.1848 68.9165,73.5296 70.1234,72.8282        "/></g><g><polygon fill="#83A1CC" points="72.6248,74.2724 71.418,74.9738 70.283,74.3185 71.4899,73.6171        "/></g><g><polygon fill="#83A1CC" points="69.7421,74.3646 68.534,75.0667 67.3991,74.4114 68.6071,73.7094        "/></g><g><polygon fill="#83A1CC" points="75.5087,74.1796 74.3007,74.8816 72.7844,75.7627 71.6495,75.1075 73.1658,74.2263          74.3738,73.5243        "/></g><g><polygon fill="#83A1CC" points="71.1086,75.1536 69.9005,75.8556 68.7656,75.2003 69.9736,74.4983        "/></g><g><polygon fill="#83A1CC" points="68.2258,75.2458 67.0178,75.9478 64.5175,74.5043 65.7255,73.8022        "/></g><g><polygon fill="#83A1CC" points="69.5923,76.0347 68.3843,76.7368 67.2493,76.0815 68.4574,75.3795        "/></g><g><polygon fill="#83A1CC" points="72.4751,75.9425 69.8029,77.4954 68.668,76.8402 71.3401,75.2873        "/></g></g><g><polygon fill="#83A1CC" points="53.8441,58.7806 53.1676,59.1737 51.8855,58.4335 52.562,58.0404       "/></g><g><polygon fill="#83A1CC" points="55.4262,59.694 54.7496,60.0872 53.4664,59.3463 54.143,58.9531       "/></g><g enable-background="new    "><g><polygon fill="#83A1CC" points="44.0533,61.2897 42.8452,61.9918 41.1445,61.0099 42.3526,60.3078        "/></g><g><polygon fill="#83A1CC" points="47.1516,61.322 45.9436,62.024 42.6608,60.1287 43.8688,59.4267        "/></g><g><polygon fill="#83A1CC" points="45.6353,62.2032 44.4273,62.9052 43.1441,62.1643 44.3521,61.4623        "/></g><g><polygon fill="#83A1CC" points="48.7325,62.2348 47.5245,62.9368 46.2424,62.1966 47.4504,61.4945        "/></g><g><polygon fill="#83A1CC" points="47.2163,63.1159 46.0082,63.818 44.7261,63.0777 45.9342,62.3757        "/></g></g><g><polygon fill="#83A1CC" points="49.4458,60.89 48.2389,61.5913 46.9568,60.8511 48.1637,60.1498       "/></g><g><polygon fill="#83A1CC" points="50.5776,59.7856 49.3696,60.4876 48.0875,59.7474 49.2955,59.0454       "/></g><g><polygon fill="#83A1CC" points="52.1597,60.699 50.9517,61.401 49.6696,60.6608 50.8776,59.9588       "/></g><g><polygon fill="#83A1CC" points="55.3227,62.5252 54.1147,63.2272 52.8326,62.487 54.0406,61.7849       "/></g><g enable-background="new    "><g><polygon fill="#83A1CC" points="54.447,60.263 53.239,60.965 51.9558,60.2242 53.1638,59.5222        "/></g><g><polygon fill="#83A1CC" points="56.0291,61.1764 54.8211,61.8784 53.5379,61.1376 54.7459,60.4356        "/></g><g><polygon fill="#83A1CC" points="53.7418,61.6124 52.5338,62.3144 51.2506,61.5736 52.4585,60.8715        "/></g></g><g><polygon fill="#83A1CC" points="52.865,59.3496 51.657,60.0516 50.3749,59.3114 51.5829,58.6094       "/></g><g><polygon fill="#83A1CC" points="52.262,57.8672 51.5855,58.2603 50.3034,57.5201 50.9799,57.127       "/></g><g><polygon fill="#83A1CC" points="51.2829,58.4362 50.0749,59.1382 48.7928,58.398 50.0008,57.696       "/></g><g><polygon fill="#83A1CC" points="50.68,56.9538 50.0034,57.3469 48.7213,56.6067 49.3979,56.2136       "/></g><g><polygon fill="#83A1CC" points="49.7008,57.5228 48.4928,58.2248 47.2107,57.4846 48.4187,56.7826       "/></g><g><polygon fill="#83A1CC" points="67.9782,69.8318 66.7702,70.5338 65.4881,69.7936 66.6961,69.0916       "/></g><g><polygon fill="#83A1CC" points="68.6834,68.4824 67.4754,69.1844 66.1934,68.4442 67.4013,67.7422       "/></g><g><polygon fill="#83A1CC" points="57.0083,60.6074 56.3317,61.0006 55.0485,60.2597 55.725,59.8665       "/></g><g><polygon fill="#83A1CC" points="66.4996,66.0872 65.823,66.4804 64.5398,65.7395 65.2163,65.3463       "/></g><g enable-background="new    "><g><polygon fill="#83A1CC" points="69.6626,67.9134 68.986,68.3065 67.704,67.5663 68.3805,67.1732        "/></g><g><polygon fill="#83A1CC" points="72.0557,69.295 71.3791,69.6882 69.286,68.4798 69.9626,68.0866        "/></g></g><g><polygon fill="#83A1CC" points="68.0805,67 67.404,67.3931 66.1219,66.6529 66.7984,66.2598       "/></g><g><polygon fill="#83A1CC" points="47.8637,59.9766 46.6568,60.6779 44.1782,59.2469 45.3851,58.5455       "/></g><g><polygon fill="#83A1CC" points="48.9955,58.8722 47.7875,59.5742 45.6945,58.3657 46.9025,57.6637       "/></g><g><polygon fill="#83A1CC" points="58.2238,67.7146 57.0158,68.4166 55.7337,67.6764 56.9418,66.9743       "/></g><g><polygon fill="#83A1CC" points="58.9371,66.3698 57.7302,67.0712 56.4481,66.3309 57.655,65.6296       "/></g><g><polygon fill="#83A1CC" points="50.3146,63.1482 49.1065,63.8502 47.8245,63.11 49.0325,62.408       "/></g><g><polygon fill="#83A1CC" points="52.6099,62.7168 51.4031,63.4182 50.1198,62.6773 51.3267,61.9759       "/></g><g><polygon fill="#83A1CC" points="51.0279,61.8034 49.821,62.5048 48.5377,61.7639 49.7446,61.0625       "/></g><g><polygon fill="#83A1CC" points="51.8967,64.0616 50.6886,64.7636 49.4065,64.0234 50.6146,63.3214       "/></g><g><polygon fill="#83A1CC" points="60.2744,70.655 59.0663,71.3571 57.3816,70.3844 58.5897,69.6823       "/></g><g><polygon fill="#83A1CC" points="61.1983,71.9971 60.6883,72.2935 59.3481,71.5197 59.8581,71.2234       "/></g></g></g></g><g><path d="M87.0255,62.6581l-2.6578,0.6287c-0.06,0.4485-1.0726,9.9243,4.9195,14.6433     c1.2789,0.47,2.9938,0.8788,3.7075,0.4642l2.6736-3.0645C94.9547,75.7444,86.9656,63.1064,87.0255,62.6581z" fill="#A6C2FF"/><g><path d="M89.5169,61.874l1.1405-0.6628c-0.659,0.383-2.4379,1.0386-5.3399-0.6368      c-0.3775-0.218-0.773-0.4762-1.1861-0.7809l-1.1405,0.6628c0.4131,0.3047,0.8086,0.5629,1.1861,0.7809      C87.079,62.9126,88.8579,62.257,89.5169,61.874z" fill="#3887E5"/></g><g><path d="M90.4695,63.824c-0.0699,0.0592-1.3989,1.1849-3.9908-0.3115c-0.267-0.1541-0.5463-0.3365-0.8384-0.5517      c-0.06,0.4484-1.1993,8.9677,4.7928,13.6866c6.0015,2.2056,4.9141-7.5993,4.8568-8.1153      c-0.2921-0.1221-0.5719-0.2625-0.8388-0.4166C91.8586,66.6185,90.539,63.9637,90.4695,63.824z" fill="#1E72C6"/></g><g><path d="M93.9124,79.7331l1.1405-0.6628c3.7168-2.1599,2.7525-10.8461,2.6889-11.4189l-1.1405,0.6628      C96.6649,68.887,97.6291,77.5732,93.9124,79.7331z" fill="#3887E5"/></g><g><path d="M84.177,61.2372c3.6548,2.1101,5.5282,0.5228,5.6268,0.4393c0.0979,0.197,1.9575,3.9395,5.6114,6.0491      c0.3772,0.2178,0.7731,0.4163,1.1861,0.5887c0.0808,0.7279,1.616,14.558-6.8488,11.4472      C81.3,73.105,82.9064,61.0887,82.9909,60.4563C83.404,60.761,83.7995,61.0192,84.177,61.2372z M89.7594,77.321      c6.0015,2.2056,4.9141-7.5993,4.8568-8.1153c-0.2922-0.1221-0.5719-0.2625-0.8388-0.4166      c-2.5926-1.4968-3.9122-4.1517-3.9817-4.2914c-0.0699,0.0592-1.3989,1.1849-3.9908-0.3115      c-0.267-0.1541-0.5463-0.3365-0.8384-0.5517C84.9067,64.0828,83.7673,72.6021,89.7594,77.321L89.7594,77.321z" fill="#6B9EF9"/></g><g><path d="M89.8034,61.676c0.0975,0.1986,1.9576,3.9396,5.6115,6.0504c0.3762,0.2159,0.7733,0.4145,1.1878,0.5886      l1.1393-0.6638c-0.4145-0.1708-0.8081-0.3692-1.1878-0.5887c-3.6539-2.1108-5.5104-5.8518-5.6115-6.0503L89.8034,61.676z" fill="#A6C2FF"/></g></g><g><path d="M72.9725,27.2069L54.7792,16.7018c-0.1634-0.0942-0.3119-0.1015-0.4159-0.0397l-0.6926,0.3978     c0.1065-0.0595,0.4134,0.7105,0.4134,0.7105S72.7676,42.5,72.6637,42.5594l0.6901-0.4c0.104-0.0595,0.1708-0.1908,0.1708-0.3739     l0.0297-13.571C73.5543,27.8456,73.2944,27.3926,72.9725,27.2069z" fill="#A6C2FF"/><path d="M53.4968,18.7383l-0.0261,12.2672c-0.0011,0.3724,0.2589,0.8226,0.5829,1.0096l18.193,10.504     c0.3224,0.1862,0.5857,0.038,0.5867-0.3344l0.0261-12.2671L53.4968,18.7383z" fill="#6B9EF9"/><polygon fill="#FFFFFF" points="71.9935,30.4131 71.9705,41.3623 54.3335,31.1783 54.3566,20.2338    "/><g><path d="M62.4919,27.1097c1.6242,0.9377,2.9348,3.2094,2.9295,5.0742      c-0.0053,1.8664-1.3245,2.6181-2.9487,1.6804c-1.6228-0.9369-2.9348-3.2078-2.9295-5.0742      C59.5485,26.9253,60.8691,26.1728,62.4919,27.1097z" fill="#4C4A8B"/></g><polygon fill="#DEE7F8" points="61.5301,28.2482 61.5191,32.1378 64.3617,31.6728    "/><g><path d="M72.2802,27.6059l-18.193-10.5039c-0.324-0.1871-0.5857-0.0361-0.5867,0.3344l-0.0037,1.302      l19.3627,11.1792l0.0037-1.302C72.8642,28.245,72.6026,27.792,72.2802,27.6059z" fill="#1E72C6"/></g><g><g><path d="M71.9308,28.8719c-0.1942-0.1121-0.3511-0.3838-0.3504-0.607       c0.0006-0.2232,0.1585-0.3137,0.3527-0.2015c0.1947,0.1124,0.3515,0.3846,0.3509,0.6078S72.1255,28.9843,71.9308,28.8719z" fill="#DEE7F8"/></g><g><path d="M70.7992,28.2186c-0.1942-0.1121-0.3511-0.3838-0.3504-0.607       c0.0006-0.2232,0.1585-0.3137,0.3527-0.2015c0.1947,0.1124,0.3515,0.3846,0.3509,0.6078       C71.1517,28.241,70.9938,28.331,70.7992,28.2186z" fill="#DEE7F8"/></g><g><path d="M69.6675,27.5652c-0.1942-0.1121-0.3511-0.3838-0.3504-0.607       c0.0006-0.2232,0.1585-0.3137,0.3527-0.2015c0.1947,0.1124,0.3515,0.3846,0.3509,0.6078S69.8622,27.6776,69.6675,27.5652z" fill="#DEE7F8"/></g></g></g><g><g><path d="M85.2002,43.8709v1.3882l1.019,0.5923c0.5235,0.3041,1.2481,0.262,2.0465-0.199L85.2002,43.8709z" fill="#6B9EF9"/></g><g><g enable-background="new    "><g><path d="M95.2287,44.4602c0,0.7427-0.2624,1.263-0.6849,1.5078l-2.495,1.4498        c0.4181-0.2445,0.6805-0.7649,0.6849-1.5032c0.0044-1.49-1.0452-3.3046-2.3438-4.0516        c-0.209-0.1246-0.4136-0.2091-0.6049-0.2626c0.0267-0.1779,0.04-0.3692,0.04-0.5692c0.0089-2.4105-1.69-5.3503-3.7893-6.5646        c-0.5826-0.3336-1.1341-0.5025-1.6278-0.5158c0.1379,0.16,0.258,0.3336,0.3691,0.5158l-2.495,1.4546        c-0.3558-0.5783-0.8273-1.0765-1.3476-1.3744c-0.0445-0.0267-0.0845-0.0489-0.129-0.071l-1.8769,1.0941        c-0.3291-0.3959-0.7071-0.734-1.1119-0.9696c-0.6493-0.3737-1.2408-0.4091-1.6678-0.16l2.495-1.4543        c0.427-0.2491,1.0185-0.2135,1.6723,0.1644c0.209,0.1201,0.4092,0.2669,0.6004,0.4404l1.0941-0.6361        c0.3647-0.2089,0.8673-0.1822,1.4232,0.1425c0.2713,0.1557,0.5248,0.3646,0.7561,0.6091l1.6411-0.9562        c0.6894-0.4002,1.6456-0.3425,2.7041,0.2669c2.0992,1.2096,3.7937,4.1496,3.7893,6.5644c0,0.1959-0.0133,0.3915-0.04,0.5694        c0.1912,0.0489,0.3958,0.1379,0.6049,0.258C94.188,41.1556,95.2331,42.9748,95.2287,44.4602z" fill="#9EB5DF"/></g><g><path d="M86.0352,34.4673c2.0988,1.2117,3.7969,4.1529,3.7901,6.5646        c-0.0006,0.1986-0.0135,0.3924-0.0387,0.5697c0.1915,0.0513,0.3953,0.1383,0.6052,0.2595        c1.2963,0.7484,2.3443,2.5635,2.3401,4.0532c-0.0042,1.4895-1.0591,2.0906-2.3554,1.3421l-12.5741-7.2596        c-1.2963-0.7484-2.3443-2.5635-2.3401-4.0531c0.0042-1.4897,1.0591-2.0907,2.3554-1.3423        c0.4054,0.234,0.7836,0.5708,1.1123,0.9666c0.0611-1.182,0.9383-1.6371,2.0062-1.0206        c0.5185,0.2994,0.9891,0.796,1.344,1.3728C82.5967,34.0451,84.1608,33.3851,86.0352,34.4673z" fill="#DEE7F8"/></g></g></g><g><g><g enable-background="new    "><g><path d="M84.0681,37.0456l2.2052,4.6838l-0.8895-0.5135l-0.0073,3.1703         c-0.002,0.6041,0.3195,1.1631,0.8427,1.4651h0l-2.6508-1.5304h0c-0.5232-0.3021-0.8447-0.861-0.8427-1.4651l0.0073-3.1703         l-0.8879-0.5126L84.0681,37.0456z" fill="#3887E5"/></g></g></g></g></g><g><g><g><g><g><polygon fill="#1E72C6" points="57.8755,37.4506 57.6724,38.2061 54.135,38.7736 53.192,42.2929 52.3973,42.7732          53.4228,38.9497 54.1858,38.3749 54.4158,38.0061        "/></g><g><g><polygon fill="#A6C2FF" points="52.6024,42.4658 53.2462,42.0916 59.5516,45.7133 59.3927,46.2179 59.2475,46.3023                   "/></g></g><g><g><g><g><g><g><g enable-background="new    "><g><polygon fill="#1E72C6" points="47.8391,59.7726 48.535,59.661 49.4802,56.135 48.7843,56.2466               "/></g><g><polygon fill="#1E72C6" points="48.9192,55.7442 49.714,55.2643 50.64,51.8099 49.9441,51.9215               "/></g><g><polygon fill="#1E72C6" points="50.0786,51.4204 50.8734,50.9405 51.7994,47.4861 51.1035,47.5976               "/></g><g><polygon fill="#1E72C6" points="51.2376,47.098 52.0324,46.6181 52.9584,43.1637 52.2626,43.2753               "/></g></g></g><g><g enable-background="new    "><g><polygon fill="#A6C2FF" points="49.1242,55.4371 49.768,55.063 56.0734,58.6847 55.9145,59.1893 55.7693,59.2737                               "/></g></g></g><g><g enable-background="new    "><g><polygon fill="#A6C2FF" points="50.2836,51.1134 50.9274,50.7392 57.2328,54.3609 57.0739,54.8655 56.9287,54.9499                               "/></g></g></g><g><g enable-background="new    "><g><polygon fill="#A6C2FF" points="51.443,46.7896 52.0868,46.4154 58.3922,50.0371 58.2333,50.5417 58.0881,50.6261                               "/></g></g></g><g><polygon fill="#A6C2FF" points="65.2757,41.7226 61.1186,42.39 52.9734,37.6865 57.1304,37.0206 57.8755,37.4506               54.6585,37.9671 61.3121,41.809 64.5291,41.2926             "/></g></g></g></g></g></g></g></g><g><g><g><polygon fill="#1E72C6" points="48.3851,57.7347 47.8585,59.7001 48.5543,59.5881 49.0503,57.7347        "/></g><g><g><polygon fill="#A6C2FF" points="47.9648,59.7609 48.6086,59.3868 55.1001,63.1153 54.7551,63.5131 54.6099,63.5975                   "/></g></g><g><g><g><g><g><g><g enable-background="new    "><g><polygon fill="#1E72C6" points="44.3805,72.671 45.1752,72.1911 46.0024,69.105 45.3065,69.2166               "/></g><g><polygon fill="#1E72C6" points="45.441,68.7156 46.2358,68.2357 47.1618,64.7812 46.4659,64.8928               "/></g><g><polygon fill="#1E72C6" points="46.6,64.3932 47.3948,63.9133 48.3208,60.4588 47.6249,60.5704               "/></g></g></g><g><g enable-background="new    "><g><polygon fill="#A6C2FF" points="45.6459,68.4085 46.2898,68.0344 52.5952,71.656 52.4362,72.1607 52.2911,72.2451                               "/></g></g></g><g><g enable-background="new    "><g><polygon fill="#A6C2FF" points="46.8053,64.0847 47.4492,63.7106 53.7546,67.3323 53.5956,67.8369 53.4505,67.9213                               "/></g></g></g><g><g><g><polygon fill="#1E72C6" points="65.2766,41.7219 65.0695,42.4797 61.6098,43.0352 52.5068,76.8503 51.8148,76.9632                 61.1202,42.3903               "/></g></g></g><g><polygon fill="none" points="49.0181,55.3759 55.7693,59.2737 56.6953,55.8192 49.9441,51.9214             "/><polygon fill="none" points="47.8587,59.6997 54.6099,63.5974 55.5355,60.1444 48.7843,56.2466             "/><polygon fill="none" points="46.6989,64.0248 53.4501,67.9227 54.3761,64.4682 47.6249,60.5705             "/><polygon fill="none" points="45.5399,68.3473 52.2911,72.2451 53.2171,68.7905 46.4659,64.8928             "/><polygon fill="none" points="51.3365,46.7298 58.0877,50.6275 59.0138,47.173 52.2626,43.2752             "/><polygon fill="none" points="50.1775,51.0521 56.9287,54.95 57.8548,51.4955 51.1035,47.5976             "/><polygon fill="none" points="53.4224,38.9499 52.4963,42.4045 59.2475,46.3022 60.1736,42.8479             "/><path d="M52.974,37.6871l-9.2752,34.5904l0.6817,0.3935l0.926-3.4543l6.7512,3.8978l-0.926,3.4545              l0.6831,0.3943l9.304-34.5736L52.974,37.6871z M52.2911,72.2451l-6.7512-3.8978l0.9261-3.4545l6.7512,3.8978              L52.2911,72.2451z M53.4501,67.9227l-6.7512-3.8979l0.9261-3.4544l6.7512,3.8978L53.4501,67.9227z M54.6099,63.5974              l-6.7512-3.8978l0.9257-3.4531l6.7512,3.8978L54.6099,63.5974z M55.7693,59.2737l-6.7512-3.8978l0.9261-3.4545              l6.7512,3.8978L55.7693,59.2737z M56.9287,54.95l-6.7512-3.8979l0.9261-3.4545l6.7512,3.8979L56.9287,54.95z               M58.0877,50.6275l-6.7512-3.8978l0.926-3.4545l6.7512,3.8978L58.0877,50.6275z M52.4963,42.4045l0.9261-3.4545              l6.7512,3.8979l-0.9261,3.4543L52.4963,42.4045z" fill="#6B9EF9"/></g></g></g></g></g></g></g></g></g><g><g><g><g><path d="M51.8074,55.8485c-0.6675,0.7039-2.2811,0.9321-2.2811,0.9321l-0.0022,0.0762         c-0.003,0.1014-0.0797,0.2184-0.1661,0.2517l-0.8798,0.1759c-0.0864,0.0335-0.1252-0.0304-0.1345-0.1306         c-0.0314-0.4526-0.0476-1.0077-0.0024-1.164c0.0628-0.1999,0.4269,0.4237,1.3027-0.5826         c0.6749,0.1513,1.5793-0.17,1.9666-0.3373C52.0392,54.8859,52.4792,55.1397,51.8074,55.8485z" fill="#3A3A77"/></g><g><g><g><g><g><g><path d="M50.3986,49.3974c-0.1441,0.4733-0.2315,0.9539-0.2824,1.4396              c-0.1385,1.3882-0.3974,4.1035-0.3634,4.7455c-0.2789,0.4903-0.7866,0.6014-1.4027,0.5288              c0,0-0.5954-3.1281-0.2481-5.3921c0.1152-0.7364,0.1857-1.4727,0.1542-2.1994c-0.035-0.8825-0.1442-2.0108-0.4335-2.962              c-0.5715-1.8694,0.2454-3.2246,0.4265-3.5705l3.1186,0.7433C51.3678,42.7306,51.5429,45.6243,50.3986,49.3974z" fill="#3A3A77"/></g></g></g></g></g></g></g></g><g><g><path d="M56.8976,52.8919c-0.8221,0.4758-2.3618,0.1706-2.3618,0.1706l-0.0252,0.0745        c-0.0335,0.0992-0.1389,0.1895-0.2278,0.194l-0.8552-0.1156c-0.0889,0.0047-0.1049-0.0712-0.0829-0.1733        c0.1088-0.4574,0.2626-1.011,0.3513-1.1505c0.118-0.1768,0.2604,0.5589,1.364-0.1471        c0.5691,0.3714,1.4909,0.3514,1.8947,0.3135C57.4011,52.0173,57.725,52.4127,56.8976,52.8919z" fill="#3A3A77"/></g><g><path d="M53.3194,42.9864c-0.7532-1.655-3.0146-1.8664-3.5808-0.6791        c-0.8351,1.7512-0.052,3.9798,1.4615,4.2532c0.2454,0.0443,0.4856,0.0996,0.7055,0.1711        c1.6681,0.542,2.0675,0.1603,1.8907,1.8528c-0.1852,1.7733-0.1219,3.4094-0.1219,3.4094        c0.3848,0.0968,1.2879,0.3309,1.4646-0.0401c-0.018-0.5146,0.1839-2.7781,0.2798-3.8701        c0.0315-0.3784,0.1335-0.7452,0.181-1.1237C55.7816,45.5114,53.3194,42.9864,53.3194,42.9864z" fill="#4C4A8B"/></g></g><g><g><g><g><path d="M55.3704,24.707c-0.1327-0.0112-0.2904,0.1539-0.304,0.1919          c-0.0258,0.0514-0.1442,0.223-0.1504,0.2321c-0.0008,0.001-0.0168,0.0207-0.0321,0.0193          c-0.0237-0.002-0.0437-0.0568,0.0096-0.3252c0.093-0.4448-0.0155-0.8509-0.014-1.014          c0.0018-0.0787-0.0244-0.109-0.0554-0.1171c-0.0027-0.0005-0.0053-0.0009-0.0079-0.0011          c-0.0436-0.0035-0.0823,0.036-0.0846,0.0888c-0.0048,0.1993-0.0257,0.78-0.0484,0.8571          c-0.0103,0.0433-0.0242,0.0538-0.0359,0.0529c-0.0128-0.0011-0.0225-0.015-0.023-0.0158          c0.0036-0.0494,0.0708-0.9871,0.0233-1.163c-0.0098-0.0372-0.0293-0.0559-0.0526-0.0605          c-0.0048-0.0016-0.0097-0.0025-0.0145-0.0028c-0.0436-0.0037-0.0838,0.0372-0.0888,0.0925          c-0.019,0.2403-0.079,1.0203-0.1039,1.0914c-0.0142,0.0416-0.0249,0.0516-0.032,0.0509          c-0.0074-0.0005-0.0109-0.0118-0.0111-0.0124c0.0024-0.0395,0.0473-0.7865,0.0582-0.9068          c0.0111-0.123,0.0133-0.1761-0.1121-0.1923c-0.1256-0.0106-0.1516,1.0931-0.1636,1.1961          c-0.0127,0.0659-0.0342,0.0832-0.0502,0.0819c-0.0089-0.0008-0.0162-0.0073-0.0193-0.0146          c-0.0066-0.0148,0.0292-0.7319,0.0166-0.8258c-0.0092-0.0545-0.0349-0.0813-0.0641-0.0837          c-0.02-0.0015-0.0414,0.0081-0.0604,0.0281c-0.0464,0.0467-0.0855,0.9748-0.0847,0.9947          c0.0004,0.0251,0.0067,0.656,0.078,0.8026c0.071,0.1497,0.0693,0.6118,0.0692,0.6364l0.6724,0.0734          c0.0107-0.3226,0.0589-0.5634,0.2195-0.7328c0.1587-0.1778,0.2186-0.368,0.2217-0.378          c0.007-0.0175,0.1399-0.3483,0.2153-0.4236c0.0755-0.0751,0.1328-0.1534,0.1358-0.1574          C55.4464,24.7288,55.4095,24.7103,55.3704,24.707z" fill="#ECB4BF"/><g><path d="M54.9039,25.9443c-0.0641-0.1719-0.7307-0.3152-1.0046-0.1692           c-0.0629,0.671-1.8166,4.2828-3.5731,6.3494c-0.0021-0.0044,0.6425,0.4363,0.2421,0.3246l0.0321,0.7335           c0.4668,0.1109,0.8822,0.1639,1.1651,0.0896C53.365,32.8429,54.9039,25.9443,54.9039,25.9443z" fill="#A6C2FF"/></g><path d="M55.0304,27.3926c0,0-3.2779,0.4899-3.2617,0.6715c0.0155,0.1746-0.6365,2.331-1.0131,3.6149          l2.6823,0.266c0.0359-0.5708,0.1866-0.9294,0.1866-0.9294C55.3093,31.3957,55.0304,27.3926,55.0304,27.3926z" fill="#ECB4BF"/><path d="M54.5647,33.3796c-0.3452-0.3693-0.6232-0.8385-0.8915-1.3269          c-0.1341-0.2441-0.1757-0.5403-0.1148-0.8367c0,0-2.1845,0.1349-2.3471-0.9152l-0.1141,0.3029          c-0.0559,0.1485-0.1965,0.2499-0.3427,0.2445c-0.6597-0.025-2.4292,0.1728-2.262,3.0416          c0.2005,3.5227-0.0943,7.631-0.0943,7.631s0.038,0.0973,0.1096,0.2546c1.3651,0.6652,2.7782,2.1519,4.4069,1.7439          c0.0376-0.0094,0.0706-0.01,0.1063-0.0157c0.1831-0.1814,0.4797-0.2645,0.6156-0.6761c0,0,1.0229-5.3358,1.4388-6.3161          C55.4352,35.6535,55.6916,34.5956,54.5647,33.3796z" fill="#A6C2FF"/></g><path d="M53.6845,42.8198c0.0043-0.0365-0.038-0.0536-0.0631-0.0252         c-1.303,1.4686-4.503-0.9977-5.1354-1.5102c-0.0526-0.0426-0.1355-0.0062-0.1535,0.0669         c-0.0319,0.1297-0.0759,0.3404-0.1132,0.6354c-0.0041,0.0327,0.0065,0.0641,0.0301,0.0827         c0.4527,0.3554,3.96,2.9451,5.3497,1.2673c0.0141-0.017,0.0235-0.0393,0.0264-0.0605         C53.6537,43.0718,53.6729,42.917,53.6845,42.8198z" fill="#2A2A5E"/></g></g><path d="M55.3318,27.4322c-0.299-0.9519-4.0918-1.5932-4.2978,1.182c-0.0215,0.2628-0.144,1.6478-0.0734,1.8333       c0.3445,0.9161,2.2005,0.7716,2.2005,0.7716c0.2445-0.5908,0.2893-1.1681,0.2807-1.2811       c-0.0131-0.1728-0.0118-0.3572,0.0849-0.5168c0.1261-0.2078,0.2618-0.1686,0.3846,0.4004l0.2405-0.0857       c0.1558-0.3879,0.1926-0.9375,0.1926-0.9375C55.5314,28.5242,55.4391,27.7828,55.3318,27.4322z" fill="#A0533F"/></g></g><g><path d="M61.6383,32.7854c-0.025-0.0213-0.0549-0.0213-0.0799,0.013c-0.0404,0.0618-0.2393,0.6394-0.2495,0.6454      c-0.0049,0.0031-0.013,0.0023-0.0207-0.0043c-0.0137-0.0116-0.026-0.0421-0.0156-0.1026      c0.0229-0.0884,0.3531-0.9541,0.2453-1.046c-0.1094-0.0874-0.1245-0.045-0.1545,0.058      c-0.0293,0.1006-0.2301,0.7085-0.2407,0.7405c0,0-0.0069,0.0062-0.0132,0.0008c-0.0062-0.0052-0.0118-0.0213-0.0103-0.0646      c0.002-0.0743,0.2007-0.7191,0.2615-0.9182c0.0135-0.0465-0.0069-0.1097-0.0443-0.1417      c-0.0041-0.0035-0.0084-0.0066-0.0129-0.0093c-0.0209-0.0149-0.043-0.0163-0.0631,0.0045      c-0.0955,0.0968-0.3386,0.8682-0.3514,0.9089c0,0-0.0131,0.0031-0.0241-0.0064c-0.0101-0.0085-0.0183-0.0275-0.013-0.069      c0.0056-0.077,0.1734-0.5382,0.233-0.6947c0.0149-0.0421-0.0046-0.1033-0.042-0.1353c-0.0023-0.0019-0.0046-0.0037-0.007-0.0054      c-0.0284-0.0184-0.0599-0.0161-0.0834,0.0456c-0.0507,0.126-0.2704,0.3504-0.3349,0.7651      c-0.0412,0.2478-0.0753,0.274-0.0957,0.2565c-0.0131-0.0111-0.0201-0.0388-0.0205-0.0403      c-0.0023-0.0118-0.046-0.2375-0.0511-0.2974c0.0008-0.0399-0.0776-0.292-0.1915-0.3891      c-0.0335-0.0287-0.0701-0.0438-0.1087-0.0363c0.0012,0.0054,0.0239,0.1109,0.0627,0.2286      c0.0388,0.1177,0.0437,0.4768,0.0439,0.4958c-0.0006,0.0101-0.0114,0.2034,0.0638,0.4659      c0.0795,0.2577,0.0428,0.4804-0.0511,0.7358l0.5822,0.4793c0.0077-0.0188,0.1537-0.374,0.2604-0.432      c0.106-0.0555,0.3124-0.5334,0.3207-0.5524c0.007-0.0145,0.2704-0.7562,0.2467-0.8289      C61.6702,32.8245,61.6554,32.8001,61.6383,32.7854z" fill="#ECB4BF"/><path d="M61.1894,34.3103c0,0-2.8995,4.3909-4.5252,4.0758c-0.931-0.1852-2.4965-2.0795-3.4506-3.0292      c-0.6299-0.6253-0.2501-1.7091,0.6392-1.8018c0,0,0.0046,0,0.0093-0.0045c0.4122-0.0416,0.8198,0.1389,1.0699,0.4677      c0.7133,0.9311,2.5099,2.4337,2.5099,2.4475c0.0523-0.5523,2.5681-2.1722,2.9187-2.7477      C60.6708,33.7069,61.2071,34.1278,61.1894,34.3103z" fill="#A6C2FF"/></g></g></g></g></svg>